<svg xmlns="http://www.w3.org/2000/svg" viewBox="460 110 540 230">
  <defs>
    <linearGradient id="gold" x1="0%" y1="0%" x2="0%" y2="100%">
      <stop offset="0%" stop-color="#ffe566"/>
      <stop offset="50%" stop-color="#ffcd00"/>
      <stop offset="100%" stop-color="#c9a200"/>
    </linearGradient>
  </defs>
  <g fill="url(#gold)">
    <path d="M494.44,262.36v-97.57l-21.82,1v-20.07l45.06-4.26v89.79h2.61c12.1-23.33,30.36-34.61,53.13-34.61,27.04,0,52.42,16.05,52.42,65.71s-25.62,71.98-59.3,71.98c-28.23,0-43.88-15.8-50.28-47.66h-1.42l-4.98,44.39h-23.01l7.59-68.72ZM601.88,263.36c0-31.6-13.28-44.14-34.86-44.14-24.67,0-40.8,15.8-49.34,27.34,0,50.66,20.16,65.46,44.59,65.46,26.09,0,39.61-16.56,39.61-48.66Z"/>
    <path d="M634.83,290.74l22.06-1.5v-88.03l-21.58.75v-20.07l44.83-4.01v111.36l22.29,1.5v19.56h-67.6v-19.56ZM646.93,141.26c0-12.54,9.01-21.57,21.58-21.57s21.58,9.03,21.58,21.57-9.01,22.07-21.58,22.07-21.58-9.03-21.58-22.07Z"/>
    <path d="M713.34,290.74l22.06-1.5v-88.79l-21.58,1v-20.07l43.4-4.26v69.47h2.37c5.46-33.86,24.9-57.94,48.15-69.98l10.91,23.58c-28.47,11.04-60.01,38.37-60.01,85.03v4.01l28.46,1.5v19.56h-73.76v-19.56Z"/>
    <path d="M837.15,262.36v-97.57l-21.82,1v-20.07l45.06-4.26v89.79h2.61c12.09-23.33,30.36-34.61,53.13-34.61,27.04,0,52.42,16.05,52.42,65.71s-25.62,71.98-59.3,71.98c-28.23,0-43.88-15.8-50.28-47.66h-1.42l-4.98,44.39h-23.01l7.59-68.72ZM944.59,263.36c0-31.6-13.28-44.14-34.86-44.14-24.67,0-40.8,15.8-49.34,27.34,0,50.66,20.16,65.46,44.59,65.46,26.09,0,39.61-16.56,39.61-48.66Z"/>
  </g>
</svg>